Star Trek Deep Space 9 Complete Collection Seasons 1-7

General Information:

Official Site: http://www.startrek.com/page/star-trek-deep-space-nine

Season 1: 20 Episodes
Season 2: 26 Episodes
Season 3: 26 Episodes
Season 4: 26 Episodes
Season 5: 26 Episodes
Season 6: 26 Episodes
Season 7: 26 Episodes

Size............: 100MB per episode; 200MB For 2 part episodes (16.8GB Total)
imDB............: http://www.imdb.com/title/tt0106145/
imDB Rating.....: 8.1/10

Plot............:
The stable wormhole discovered by the Deep Space Nine crew is known to the Bajoran people
as the Celestial Temple of their Prophets. Sisko, as discoverer of the wormhole and its
inhabitants, is therefore the Emissary of Bajoran prophesy. The wormhole\'s other end is in
the Gamma Quadrant, halfway around the galaxy from Bajor. That section of space is dominated
by the malevolent Dominion. The Dominion is led by the Changelings, the race of shapeshifters
to which Odo belongs. As of the beginning of the sixth season, Cardassia has joined the Dominion,
and together they are waging war on the Federation and their Klingon allies. The war is quickly
becoming the most costly war ever for the Federation, and the Deep Space Nine crew must fight
to protect their way of life.


Container                        : MPEG-4 (.mp4)

Video Average:
Format/Info                      : Advanced Video Codec
Format profile                   : High@L3.1
Format settings, CABAC           : Yes
Format settings, ReFrames        : 5 frames
Codec ID                         : avc1
Codec ID/Info                    : Advanced Video Coding
Duration                         : 45mn 30s
Bit rate mode                    : Variable
Bit rate                         : 243 Kbps
Maximum bit rate                 : 1 881 Kbps
Width                            : 576 pixels
Height                           : 432 pixels
Display aspect ratio             : 4:3
Frame rate mode                  : Constant
Frame rate                       : 23.976 fps
Color space                      : YUV
Chroma subsampling               : 4:2:0
Bit depth                        : 8 bits
Scan type                        : Progressive
Bits/(Pixel*Frame)               : 0.041
Stream size                      : 78.6 MiB (83%)
Writing library                  : x264 core 80 r1373 4322f63
Encoding settings                : cabac=1 / ref=5 / deblock=1:0:0 / analyse=0x3:0x133 / me=esa /
subme=8 / psy=1 / psy_rd=1.0:0.0 / mixed_ref=1 / me_range=24 / chroma_me=1 / trellis=1 / 8x8dct=1 /
cqm=0 / deadzone=21,11 / fast_pskip=0 / chroma_qp_offset=-2 / threads=4 / sliced_threads=0 / nr=0 /
decimate=1 / mbaff=0 / constrained_intra=0 / bframes=3 / b_pyramid=0 / b_adapt=1 / b_bias=0 /
direct=3 / wpredb=1 / wpredp=2 / keyint=250 / keyint_min=25 / scenecut=40 / rc_lookahead=40 /
rc=abr / mbtree=1 / bitrate=243 / ratetol=1.0 / qcomp=0.60 / qpmin=10 / qpmax=51 / qpstep=4 /
ip_ratio=1.40 / aq=1:1.00

Audio Average:
Format/Info                      : Advanced Audio Codec
Format version                   : Version 4
Format profile                   : LC
Format settings, SBR             : Yes
Format settings, PS              : No
Codec ID                         : 40
Duration                         : 45mn 30s
Bit rate mode                    : Variable
Bit rate                         : 48.0 Kbps
Maximum bit rate                 : 56.4 Kbps
Channel(s)                       : 2 channels
Channel positions                : Front: L R
Sampling rate                    : 48.0 KHz
Stream size                      : 15.6 MiB (16%)

Screens/Thumbs: 
http://i18.photobucket.com/albums/b116/mattlb0619/startrek_ds9_collection/StarTrekDS9S01E01-E02mp4_thumbs_20100806_161857.jpg 
http://i18.photobucket.com/albums/b116/mattlb0619/startrek_ds9_collection/StarTrekDS9S02E01TheHomecomingmp4_thumbs_20100806_162024.jpg 
http://i18.photobucket.com/albums/b116/mattlb0619/startrek_ds9_collection/StarTrekDS9S03E01mp4_thumbs_20100806_162103.jpg 
http://i18.photobucket.com/albums/b116/mattlb0619/startrek_ds9_collection/StarTrekDS9S04e01-e02mp4_thumbs_20100806_162149.jpg 
http://i18.photobucket.com/albums/b116/mattlb0619/startrek_ds9_collection/StarTrekDS9S05e01ApocalypseRisingmp4_thumbs_20100806_162224.jpg 
http://i18.photobucket.com/albums/b116/mattlb0619/startrek_ds9_collection/StarTrekDS9S06e01atimetostandmp4_thumbs_20100806_162253.jpg 
http://i18.photobucket.com/albums/b116/mattlb0619/startrek_ds9_collection/StarTrekDS9S07e01imageinthesandmp4_thumbs_20100806_162333.jpg

Torrent and transcoding done by Mattlb0619 of
Thanks goto original scene releasers VF and SFM for 350(700)MB XViD DVDRips.
Please leave comments on quality and seed to(at least) 1:1.